<?xml version="1.0" encoding="UTF-8"?>
<svg xmlns="http://www.w3.org/2000/svg" xmlns:xlink="http://www.w3.org/1999/xlink" width="7pt" height="7pt" viewBox="0 0 7 7" version="1.1">
<g id="surface1">
<path style=" stroke:none;fill-rule:nonzero;fill:rgb(0%,0%,0%);fill-opacity:1;" d="M 6.734375 1.828125 L 6.394531 1.488281 C 6.351562 1.441406 6.296875 1.417969 6.238281 1.417969 C 6.179688 1.417969 6.125 1.441406 6.082031 1.488281 L 3.402344 4.167969 L 0.722656 1.488281 C 0.675781 1.441406 0.625 1.417969 0.566406 1.417969 C 0.507812 1.417969 0.453125 1.441406 0.410156 1.488281 L 0.0703125 1.828125 C 0.0234375 1.871094 0 1.925781 0 1.984375 C 0 2.042969 0.0234375 2.097656 0.0703125 2.140625 L 3.246094 5.320312 C 3.289062 5.363281 3.34375 5.386719 3.402344 5.386719 C 3.460938 5.386719 3.511719 5.363281 3.558594 5.320312 L 6.734375 2.140625 C 6.78125 2.097656 6.804688 2.042969 6.804688 1.984375 C 6.804688 1.925781 6.78125 1.871094 6.734375 1.828125 Z M 6.734375 1.828125 "/>
</g>
</svg>
