<svg xmlns="http://www.w3.org/2000/svg" width="54" height="134" viewBox="0 0 54 134">
  <g id="Group_93782" data-name="Group 93782" transform="translate(-1758 -3879)">
    <g id="Rectangle_12614" data-name="Rectangle 12614" transform="translate(1758 3879)" fill="#fff" stroke="#e4e4e4" stroke-width="1">
      <rect width="54" height="134" stroke="none"/>
      <rect x="0.5" y="0.5" width="53" height="133" fill="none"/>
    </g>
    <path id="Path_29937" data-name="Path 29937" d="M.518.511a1.7,1.7,0,0,0,0,2.443l8.815,8.539a1.814,1.814,0,0,0,2.45.054L20.47,3.134A1.694,1.694,0,0,0,20.479.69a1.813,1.813,0,0,0-2.515,0L10.5,7.833,3.033.5A1.813,1.813,0,0,0,.518.511Z" transform="translate(1779 3956.995) rotate(-90)" fill="#333"/>
  </g>
</svg>
