<svg xmlns="http://www.w3.org/2000/svg" xmlns:xlink="http://www.w3.org/1999/xlink" width="74" height="158" viewBox="0 0 74 158">
  <defs>
    <filter id="Rectangle_12615" x="0" y="0" width="74" height="158" filterUnits="userSpaceOnUse">
      <feOffset dy="3" input="SourceAlpha"/>
      <feGaussianBlur stdDeviation="3" result="blur"/>
      <feFlood flood-opacity="0.102"/>
      <feComposite operator="in" in2="blur"/>
      <feComposite in="SourceGraphic"/>
    </filter>
    <clipPath id="clip-path">
      <rect id="Rectangle_12616" data-name="Rectangle 12616" width="24" height="24" stroke="#707070" stroke-width="1"/>
    </clipPath>
  </defs>
  <g id="Group_93781" data-name="Group 93781" transform="translate(-99 -3870)">
    <g transform="matrix(1, 0, 0, 1, 99, 3870)" filter="url(#Rectangle_12615)">
      <path id="Rectangle_12615-2" data-name="Rectangle 12615" d="M0,0H52a4,4,0,0,1,4,4V136a4,4,0,0,1-4,4H0a0,0,0,0,1,0,0V0A0,0,0,0,1,0,0Z" transform="translate(9 6)" fill="#fff"/>
    </g>
    <g id="Mask_Group_91033" data-name="Mask Group 91033" transform="translate(124 3934)" clip-path="url(#clip-path)">
      <g id="Icon_feather-arrow-right" data-name="Icon feather-arrow-right" transform="translate(6 1.5)">
        <path id="Path_29938" data-name="Path 29938" d="M27.752,7.5,18,18l9.752,10.5" transform="translate(-18 -7.5)" fill="none" stroke="#000" stroke-linecap="round" stroke-linejoin="round" stroke-width="3"/>
      </g>
    </g>
  </g>
</svg>
