<svg xmlns="http://www.w3.org/2000/svg" xmlns:xlink="http://www.w3.org/1999/xlink" width="39" height="39" viewBox="0 0 39 39">
  <defs>
    <clipPath id="clip-path">
      <rect id="Rectangle_3549" data-name="Rectangle 3549" width="27" height="27" transform="translate(-0.204 -0.205)" fill="#fff" stroke="#707070" stroke-width="1"/>
    </clipPath>
  </defs>
  <g id="Group_1186" data-name="Group 1186" transform="translate(-509 -124)">
    <circle id="Ellipse_37" data-name="Ellipse 37" cx="19.5" cy="19.5" r="19.5" transform="translate(509 124)" fill="#333"/>
    <g id="Mask_Group_265" data-name="Mask Group 265" transform="translate(515.204 130.205)" clip-path="url(#clip-path)">
      <g id="delivery-truck" transform="translate(0.079 3.98)">
        <g id="Group_670" data-name="Group 670" transform="translate(0 0)">
          <g id="Group_669" data-name="Group 669">
            <path id="Path_205" data-name="Path 205" d="M20.633,9.454h-1.6L19.512,3.9c0-.01,0-.02,0-.03v0h0a.373.373,0,0,0-.225-.342l0,0-.026-.009-.01,0-.022-.006-.015,0-.019,0-.018,0H11.5a.373.373,0,0,0,0,.747h7.234l-.743,8.531v0L17.8,14.929H4.829l.217-2.24h2.47a.373.373,0,1,0,0-.747h-2.4l.458-4.729H9.508a.373.373,0,1,0,0-.747H5.649l.215-2.223h4.141a.373.373,0,1,0,0-.747H5.525a.373.373,0,0,0-.364.295v0c0,.009,0,.019,0,.028v.011L4.9,6.467H.373a.373.373,0,0,0,0,.747H4.827l-.458,4.729H3.037a.373.373,0,0,0,0,.747H4.3l-.249,2.575h0l-.386,3.981h0c0,.005,0,.01,0,.015s0,.014,0,.021h0c0,.01,0,.019,0,.029s0,.006,0,.009,0,.019,0,.029v.008c0,.007,0,.014.005.021l0,.015v0a.373.373,0,0,0,.089.146l0,0,.012.011a.371.371,0,0,0,.087.059l.02.01.006,0,.028.01h0l.034.009h0l.033,0H4l.036,0H5.7a2.842,2.842,0,0,0,5.635,0h5.988a2.842,2.842,0,0,0,5.635,0h1.663l.037,0h.006l.029,0,.012,0,.022-.006.014,0,.018-.007.015-.007.016-.008.015-.008.015-.009.014-.009.015-.011.012-.01.015-.013.01-.01.015-.016.008-.009.015-.021.005-.007.017-.028v0c.006-.01.011-.021.015-.032l0-.01c0-.008.006-.015.009-.023l0-.016,0-.019c0-.006,0-.011,0-.017s0-.01,0-.015c.016-.127.308-2.472.439-3.989v0c.038-.437.062-.805.062-1.031A4.859,4.859,0,0,0,20.633,9.454Zm-1.67.747h1.527l-.2,2.24H18.769ZM8.513,21.381a2.1,2.1,0,1,1,2.1-2.1A2.1,2.1,0,0,1,8.513,21.381Zm11.623,0a2.1,2.1,0,1,1,2.1-2.1A2.1,2.1,0,0,1,20.135,21.381Zm4.15-2.469H22.953a2.842,2.842,0,0,0-5.635,0H11.33a2.842,2.842,0,0,0-5.635,0H4.444l.314-3.236H18.145l.037,0h.007l.029,0,.012,0,.022-.006.015,0,.019-.007.015-.007.016-.008.015-.008.015-.009.014-.01.014-.011.013-.011.014-.013.011-.011.013-.014.01-.012.012-.016.009-.012.01-.017.007-.013.009-.018.006-.015.007-.018.005-.016,0-.018c0-.006,0-.012,0-.018s0-.012,0-.018,0-.012,0-.019v0l.187-2.148h1.93a2.674,2.674,0,0,1,2.206,1.22,3.063,3.063,0,0,0,1.809,1.236C24.54,16.792,24.364,18.266,24.285,18.912Zm.427-4.016a2.443,2.443,0,0,1-1.31-.978,3.506,3.506,0,0,0-2.359-1.454l.193-2.218a4.113,4.113,0,0,1,3.5,4.062C24.74,14.447,24.73,14.65,24.712,14.9Z" transform="translate(0 -3.497)" fill="#fff"/>
          </g>
        </g>
        <g id="Group_672" data-name="Group 672" transform="translate(7.144 14.419)">
          <g id="Group_671" data-name="Group 671">
            <path id="Path_206" data-name="Path 206" d="M8.656,18.206a1.369,1.369,0,1,0,1.369,1.369A1.37,1.37,0,0,0,8.656,18.206Zm0,1.991a.622.622,0,1,1,.622-.622A.623.623,0,0,1,8.656,20.2Z" transform="translate(-7.288 -18.206)" fill="#fff"/>
          </g>
        </g>
        <g id="Group_674" data-name="Group 674" transform="translate(18.767 14.419)">
          <g id="Group_673" data-name="Group 673">
            <path id="Path_207" data-name="Path 207" d="M20.513,18.206a1.369,1.369,0,1,0,1.369,1.369A1.37,1.37,0,0,0,20.513,18.206Zm0,1.991a.622.622,0,1,1,.622-.622A.623.623,0,0,1,20.513,20.2Z" transform="translate(-19.144 -18.206)" fill="#fff"/>
          </g>
        </g>
        <g id="Group_676" data-name="Group 676" transform="translate(1.336 5.957)">
          <g id="Group_675" data-name="Group 675">
            <path id="Path_208" data-name="Path 208" d="M3.561,9.574H1.736a.373.373,0,0,0,0,.747H3.561a.373.373,0,0,0,0-.747Z" transform="translate(-1.363 -9.574)" fill="#fff"/>
          </g>
        </g>
      </g>
    </g>
  </g>
</svg>
