<svg xmlns="http://www.w3.org/2000/svg" width="21" height="21" viewBox="0 0 21 21">
  <path id="Icon_material-shopping-cart" data-name="Icon material-shopping-cart" d="M7.8,19.8a2.1,2.1,0,1,0,2.1,2.1A2.1,2.1,0,0,0,7.8,19.8ZM1.5,3V5.1H3.6l3.78,7.97L5.963,15.642A2.03,2.03,0,0,0,5.7,16.65a2.106,2.106,0,0,0,2.1,2.1H20.4v-2.1H8.241a.26.26,0,0,1-.262-.262l.031-.126.945-1.711h7.823a2.09,2.09,0,0,0,1.837-1.082l3.759-6.815a1.026,1.026,0,0,0,.126-.5A1.053,1.053,0,0,0,21.45,5.1H5.921L4.934,3ZM18.3,19.8a2.1,2.1,0,1,0,2.1,2.1A2.1,2.1,0,0,0,18.3,19.8Z" transform="translate(-1.5 -3)" fill="#fff"/>
</svg>
