<svg xmlns="http://www.w3.org/2000/svg" width="21" height="21" viewBox="0 0 21 21">
  <g id="Group_88968" data-name="Group 88968" transform="translate(-266 -1295)">
    <rect id="Rectangle_10419" data-name="Rectangle 10419" width="21" height="21" rx="4" transform="translate(266 1295)" fill="#4b9349"/>
    <path id="Icon_ionic-ios-star" data-name="Icon ionic-ios-star" d="M15.715,7.874h-4.6l-1.4-4.168a.506.506,0,0,0-.95,0l-1.4,4.168H2.75a.5.5,0,0,0-.5.5.367.367,0,0,0,.009.084.48.48,0,0,0,.209.353l3.777,2.662L4.8,15.687a.5.5,0,0,0,.172.562.483.483,0,0,0,.281.122.612.612,0,0,0,.312-.112l3.686-2.627,3.686,2.627a.585.585,0,0,0,.312.112.449.449,0,0,0,.278-.122.5.5,0,0,0,.172-.562l-1.45-4.214,3.746-2.687.091-.078a.478.478,0,0,0-.369-.834Z" transform="translate(267.252 1295.627)" fill="#fff"/>
  </g>
</svg>
